<svg xmlns="http://www.w3.org/2000/svg" width="68.795" height="197.374" viewBox="653.516 392.586 68.795 197.374">
  <path fill="#FFB8C2" d="M722.024 556.288c-3.386-24.395-9.168-52.058-14.018-75.195a62.389 62.389 0 01-1.335-12.843c0-2.957.209-5.917.625-8.875 2.291-16.282 2.599-29.09 2.599-35.917 0-2.419-.037-4.087-.041-4.893-.01-3.087-1.14-5.583-4.229-5.572-2.01.007-3.072 1.077-4.053 2.673l-.032-9.278a5.592 5.592 0 00-5.61-5.573 5.581 5.581 0 00-4.744 2.673l-.019-5.328a5.591 5.591 0 00-11.183.02v.019l.017 4.348c-.992-1.589-2.062-2.647-4.071-2.641-3.08.012-4.881 2.509-4.881 5.585v.027l1.193 36.165.001.063a1.9 1.9 0 01-3.36 1.216l-5.401-6.477a5.591 5.591 0 10-8.751 6.961s12.193 15.267 16.216 20.389a41.638 41.638 0 018.699 29.768c-1.382 14.204-2.442 28.906-2.442 40.563 0 7.718.465 14.1 1.609 18.12 2.434 24.839 9.381 35.145 19.705 37.35 13.996 2.99 23.794-15.278 23.794-29.217a30.14 30.14 0 00-.288-4.131z"/>
  <path fill="#FFCFD7" d="M696.563 504.544l6.353 33.959a5.188 5.188 0 006.051 4.143 5.186 5.186 0 004.143-6.049l-6.353-33.958a5.186 5.186 0 00-10.194 1.905z"/>
  <circle fill="#FFCFD7" cx="710.867" cy="550.943" r="5.185"/>
</svg>
