<svg xmlns="http://www.w3.org/2000/svg" width="1536.5" height="1080">
  <path fill="#EAFFFF" d="M1440.5 1033.043H96.5c-51.866 0-93.914-42.048-93.914-93.913V140.87c0-51.865 42.046-93.913 93.914-93.913h1344.002c51.865 0 93.913 42.046 93.913 93.913v798.262c-.002 51.865-42.048 93.911-93.915 93.911z"/>
  <path fill="#C5EAD4" d="M1076.175 46.957c0 25.935-21.022 46.957-46.957 46.957H811.581c4.004 6.913 6.333 14.916 6.333 23.478 0 25.935-21.022 46.957-46.957 46.957H583.132c-25.935 0-46.957-21.022-46.957-46.957 0-25.935 21.022-46.957 46.957-46.957h76.767c-4.004-6.913-6.332-14.916-6.332-23.477C653.565 21.022 674.588 0 700.522 0h328.695c25.933 0 46.958 21.022 46.958 46.957z"/>
  <path fill="#A9D5BB" d="M817.914 117.391c0 25.935-21.022 46.957-46.957 46.957H583.132c-25.935 0-46.957-21.022-46.957-46.957 0-25.935 21.022-46.957 46.957-46.957h187.825c25.935 0 46.957 21.024 46.957 46.957z"/>
  <path fill="#FFFF81" d="M583.13 223.043c0 110.217-89.35 199.566-199.566 199.566S184 333.26 184 223.043 273.349 23.478 383.566 23.478 583.13 112.826 583.13 223.043z"/>
  <path fill="#FFF145" d="M489.218 223.043c0 58.35-47.3 105.652-105.652 105.652s-105.652-47.3-105.652-105.652c0-58.352 47.301-105.652 105.652-105.652s105.652 47.303 105.652 105.652z"/>
  <path fill="#84837A" d="M1264 211.305c0 9.724-7.885 17.609-17.609 17.609-22.654 0-41.086 18.434-41.086 41.086 0 9.724-7.885 17.609-17.609 17.609-9.724 0-17.609-7.885-17.609-17.609 0-22.655-18.434-41.086-41.086-41.086-9.725 0-17.609-7.885-17.609-17.609 0-9.725 7.885-17.609 17.609-17.609 23.574 0 44.689 10.75 58.695 27.599 14.007-16.85 35.121-27.599 58.695-27.599 9.724-.001 17.609 7.884 17.609 17.609z"/>
  <path fill="#A9D5BB" d="M1488.5 1080H46.957C21.022 1080 0 1058.978 0 1033.043V446.086c0-25.935 21.022-46.956 46.957-46.956H1488.5c25.935 0 46.957 21.021 46.957 46.956v586.957c0 25.935-21.022 46.957-46.957 46.957z"/>
  <path fill="#C5EAD4" d="M1536.5 845.218H0V610.435h1536.5v234.783z"/>
  <path fill="#EAFFFF" d="M641.825 516.522c0 9.725-7.885 17.609-17.609 17.609h-375.65c-9.724 0-17.609-7.885-17.609-17.609 0-9.724 7.885-17.608 17.609-17.608h375.652c9.724 0 17.607 7.882 17.607 17.608zm270-17.608H700.522c-9.724 0-17.608 7.885-17.608 17.608 0 9.725 7.885 17.609 17.608 17.609h211.305c9.725 0 17.609-7.885 17.609-17.609-.001-9.726-7.884-17.608-17.611-17.608zm264.132 0h-93.914c-9.724 0-17.609 7.885-17.609 17.608 0 9.725 7.886 17.609 17.609 17.609h93.914c9.724 0 17.608-7.885 17.608-17.609.001-9.726-7.884-17.608-17.608-17.608zM506.825 610.435c0-9.725-7.885-17.609-17.609-17.609H254.434c-9.724 0-17.609 7.885-17.609 17.609 0 9.724 7.885 17.608 17.609 17.608h234.782c9.726 0 17.609-7.883 17.609-17.608zm76.305 76.303H395.305c-9.725 0-17.609 7.885-17.609 17.609s7.885 17.609 17.609 17.609H583.13c9.724 0 17.608-7.885 17.608-17.609s-7.883-17.609-17.608-17.609z"/>
  <path fill="#FFF175" d="M1536.5 1080H0V821.738h1536.5V1080z"/>
  <path fill="#D3842F" d="M999.87 710.218v352.175c0 9.725-7.885 17.609-17.608 17.609-9.725 0-17.609-7.885-17.609-17.608V710.218c0-9.724 7.885-17.608 17.609-17.608 9.723-.001 17.608 7.882 17.608 17.608zm-228.913 264.13c-9.725 0-17.609 7.885-17.609 17.609v70.434c0 9.725 7.885 17.609 17.609 17.609 9.724 0 17.608-7.885 17.608-17.609v-70.434c0-9.725-7.884-17.609-17.608-17.609zm93.913 0c-9.724 0-17.608 7.885-17.608 17.609v70.434c0 9.725 7.885 17.609 17.608 17.609 9.725 0 17.609-7.885 17.609-17.609v-70.434c-.001-9.725-7.884-17.609-17.609-17.609zm234.782 0c-9.725 0-17.609 7.885-17.609 17.609v70.434c0 9.725 7.885 17.609 17.609 17.609s17.609-7.885 17.609-17.609v-70.434c.001-9.725-7.884-17.609-17.609-17.609zm93.914 0c-9.725 0-17.609 7.885-17.609 17.609v70.434c0 9.725 7.885 17.609 17.609 17.609 9.724 0 17.608-7.885 17.608-17.609v-70.434c.001-9.725-7.884-17.609-17.608-17.609z"/>
  <path fill="#4E77EA" d="M1217.043 798.262h-140.87c-12.966 0-23.478 10.511-23.478 23.477v164.348c0 12.967 10.512 23.478 23.478 23.478h140.87c12.967 0 23.478-10.511 23.478-23.478V821.738c.001-12.966-10.511-23.476-23.478-23.476zM888.348 798.262h-140.87c-12.967 0-23.478 10.511-23.478 23.477v164.348c0 12.967 10.511 23.478 23.478 23.478h140.87c12.967 0 23.478-10.511 23.478-23.478V821.738c-.001-12.966-10.512-23.476-23.478-23.476z"/>
  <path fill="#3BACEA" d="M782.695 798.262h70.435v211.304h-70.435V798.262zm328.696 0v211.304h70.435V798.262h-70.435z"/>
  <path fill="#DDB961" d="M219.218 921.522c0-9.724 7.885-17.608 17.609-17.608h23.478c9.724 0 17.609 7.885 17.609 17.608 0 9.725-7.885 17.609-17.609 17.609h-23.478c-9.726-.001-17.609-7.884-17.609-17.609zm205.434 88.043h23.477c9.725 0 17.609-7.885 17.609-17.608 0-9.725-7.885-17.609-17.609-17.609h-23.477c-9.724 0-17.609 7.885-17.609 17.609 0 9.724 7.885 17.608 17.609 17.608zm23.477-117.39h23.478c9.724 0 17.609-7.885 17.609-17.609 0-9.724-7.885-17.608-17.609-17.608H448.13c-9.725 0-17.609 7.885-17.609 17.608.001 9.724 7.884 17.609 17.608 17.609zm164.349 70.434h23.478c9.724 0 17.608-7.885 17.608-17.609s-7.885-17.609-17.608-17.609h-23.478c-9.725 0-17.609 7.885-17.609 17.609s7.884 17.609 17.609 17.609zM0 1080h1536.5v-35.218H0V1080z"/>
  <g id="group1">
    <path fill="#3BACEA" d="M707.872 704.553L982.26 586.957l274.387 117.596a12.126 12.126 0 017.352 11.147c0 6.699-5.43 12.127-12.127 12.127H712.647c-6.699 0-12.127-5.43-12.127-12.127a12.128 12.128 0 017.352-11.147z"/>
    <path fill="#4E77EA" d="M1138.783 727.825H712.647c-6.699 0-12.127-5.43-12.127-12.129 0-4.852 2.89-9.237 7.352-11.148l188.302-80.702 242.609 103.979z"/>
  </g>
</svg>
