<?xml version="1.0" encoding="utf-8"?>
<!-- Generator: Adobe Illustrator 16.0.0, SVG Export Plug-In . SVG Version: 6.00 Build 0)  -->
<!DOCTYPE svg PUBLIC "-//W3C//DTD SVG 1.1//EN" "http://www.w3.org/Graphics/SVG/1.1/DTD/svg11.dtd">
<svg version="1.1" id="Layer_1" xmlns="http://www.w3.org/2000/svg" xmlns:xlink="http://www.w3.org/1999/xlink" x="0px" y="0px"
	 width="999.999px" height="959.496px" viewBox="-244.501 -233.932 999.999 959.496"
	 enable-background="new -244.501 -233.932 999.999 959.496" xml:space="preserve">
<g>
	<path fill="#F2A154" d="M738.702,132.132c-6.358-19.671-23.807-33.643-44.449-35.503L413.861,71.169L302.988-188.344
		c-8.177-19.019-26.796-31.33-47.483-31.33c-20.687,0-39.305,12.312-47.48,31.375L97.151,71.169l-280.437,25.459
		c-20.605,1.905-38.008,15.832-44.404,35.503c-6.397,19.671-0.489,41.248,15.098,54.848L-0.65,372.855l-62.497,275.301
		c-4.573,20.242,3.284,41.166,20.08,53.306c9.027,6.523,19.589,9.843,30.241,9.843c9.183,0,18.292-2.475,26.468-7.366
		l241.864-144.555l241.776,144.555c17.693,10.644,39.996,9.673,56.754-2.477c16.803-12.178,24.652-33.108,20.078-53.306
		l-62.497-275.301l211.944-185.838C739.148,173.38,745.098,151.84,738.702,132.132z"/>
	<path d="M-12.827,725.563c-13.891,0-27.236-4.339-38.592-12.545c-21.41-15.476-31.472-42.17-25.635-68.003l60.62-267.038
		L-221.995,197.7c-19.869-17.336-27.438-44.814-19.255-69.977c8.156-25.086,30.394-42.864,56.651-45.292L87.384,57.739
		l107.529-251.641c10.432-24.324,34.213-40.03,60.592-40.03c26.366,0,50.147,15.684,60.583,39.957L423.629,57.739l271.914,24.69
		c26.324,2.373,48.596,20.16,56.727,45.317c8.15,25.117,0.568,52.6-19.32,70.001L527.4,377.979L588.018,645
		c5.844,25.805-4.211,52.496-25.615,68.008c-11.321,8.208-24.682,12.547-38.633,12.547c0,0-0.002,0-0.004,0
		c-11.916,0-23.615-3.251-33.834-9.398l-234.427-140.16L20.956,716.177C10.697,722.316-0.988,725.563-12.827,725.563z
		 M255.505-205.416c-14.959,0-28.454,8.924-34.376,22.736L110.263,76.772c-2.061,4.821-6.601,8.122-11.823,8.597l-280.437,25.46
		c-14.88,1.375-27.503,11.469-32.134,25.711c-4.644,14.279-0.359,29.861,10.912,39.696L8.752,362.136
		c3.932,3.449,5.661,8.774,4.503,13.876l-62.497,275.301c-3.313,14.665,2.389,29.818,14.527,38.594
		c6.464,4.672,14.033,7.141,21.888,7.141c6.684,0,13.305-1.848,19.146-5.343l241.871-144.56c4.505-2.691,10.127-2.691,14.633,0
		L504.599,691.7c5.814,3.499,12.433,5.337,19.169,5.337c0.002,0,0.002,0,0.004,0c7.899,0,15.469-2.461,21.894-7.119
		c12.153-8.806,17.86-23.963,14.543-38.611l-62.495-275.295c-1.159-5.102,0.569-10.429,4.504-13.878L714.16,176.296
		c11.305-9.891,15.61-25.495,10.98-39.764c-4.614-14.275-17.238-24.358-32.167-25.703L412.572,85.369
		c-5.222-0.475-9.763-3.776-11.822-8.598L289.877-182.741C283.96-196.504,270.463-205.416,255.505-205.416z"/>
</g>
</svg>
