<?xml version="1.0" encoding="utf-8"?>
<!-- Generator: Adobe Illustrator 16.0.0, SVG Export Plug-In . SVG Version: 6.00 Build 0)  -->
<!DOCTYPE svg PUBLIC "-//W3C//DTD SVG 1.1//EN" "http://www.w3.org/Graphics/SVG/1.1/DTD/svg11.dtd">
<svg version="1.1" id="Layer_1" xmlns="http://www.w3.org/2000/svg" xmlns:xlink="http://www.w3.org/1999/xlink" x="0px" y="0px"
	 width="971.468px" height="930.979px" viewBox="-230.232 -219.674 971.468 930.979"
	 enable-background="new -230.232 -219.674 971.468 930.979" xml:space="preserve">
<g>
	<path fill="#F2A154" d="M738.703,132.132c-6.359-19.671-23.809-33.643-44.449-35.503l-280.392-25.46L302.988-188.344
		c-8.177-19.02-26.796-31.33-47.483-31.33s-39.305,12.312-47.48,31.375L97.151,71.169l-280.437,25.459
		c-20.605,1.905-38.008,15.832-44.404,35.503c-6.397,19.671-0.489,41.248,15.098,54.848L-0.65,372.855l-62.497,275.301
		c-4.573,20.242,3.284,41.166,20.08,53.306c9.027,6.523,19.589,9.843,30.241,9.843c9.183,0,18.292-2.475,26.468-7.365
		l241.864-144.556l241.776,144.556c17.692,10.644,39.997,9.673,56.754-2.478c16.803-12.178,24.65-33.108,20.078-53.306
		l-62.498-275.301L723.56,187.017C739.148,173.38,745.097,151.84,738.703,132.132z"/>
</g>
</svg>
